# xmcd CD database file
#
# Track frame offsets:
#	150
#	19721
#	51400
#	88436
#
# Disc length: 1296 seconds
#
# Revision: 0
# Processed by: cddbd v1.5.2PL0 Copyright (c) Steve Scherf et al.
# Submitted via: Mozilla Thunderbird 7.01
#
DISCID=31050e04
DTITLE=Festering Flesh - Experiments with a sick pussy
DYEAR=2001
DGENRE=Death Metal
TTITLE0=Vaginal flesh torn inside out
TTITLE1=Experiments with a sick pussy
TTITLE2=Experience in homosexual necrophilism
TTITLE3=DATA (No content here)
EXTD=YEAR: 2001
EXTT0=
EXTT1=
EXTT2=
EXTT3=
PLAYORDER=
